<svg xmlns="http://www.w3.org/2000/svg" width="300" height="200" viewBox="0 0 300 200">
  <defs>
    <linearGradient id="pixelBg" x1="0%" y1="0%" x2="100%" y2="100%">
      <stop offset="0%" style="stop-color:#1a1a2e;stop-opacity:1"/>
      <stop offset="100%" style="stop-color:#16213e;stop-opacity:1"/>
    </linearGradient>
    <filter id="pixelGlow">
      <feGaussianBlur stdDeviation="2" result="coloredBlur"/>
      <feMerge> 
        <feMergeNode in="coloredBlur"/>
        <feMergeNode in="SourceGraphic"/>
      </feMerge>
    </filter>
    <pattern id="gridPattern" x="0" y="0" width="20" height="20" patternUnits="userSpaceOnUse">
      <rect x="0" y="0" width="20" height="20" fill="none" stroke="#4a90e2" stroke-width="0.5" opacity="0.2"/>
    </pattern>
  </defs>
  
  <!-- 背景 -->
  <rect width="300" height="200" fill="url(#pixelBg)"/>
  
  <!-- 网格背景 -->
  <rect width="300" height="200" fill="url(#gridPattern)"/>
  
  <!-- 数独棋盘背景 -->
  <rect x="50" y="30" width="135" height="135" fill="rgba(15, 52, 96, 0.8)" stroke="#7b68ee" stroke-width="3"/>
  
  <!-- 9x9网格线 -->
  <g stroke="#4a90e2" stroke-width="1" fill="none" opacity="0.8">
    <!-- 垂直线 -->
    <line x1="65" y1="30" x2="65" y2="165"/>
    <line x1="80" y1="30" x2="80" y2="165"/>
    <line x1="95" y1="30" x2="95" y2="165"/>
    <line x1="110" y1="30" x2="110" y2="165"/>
    <line x1="125" y1="30" x2="125" y2="165"/>
    <line x1="140" y1="30" x2="140" y2="165"/>
    <line x1="155" y1="30" x2="155" y2="165"/>
    <line x1="170" y1="30" x2="170" y2="165"/>
    
    <!-- 水平线 -->
    <line x1="50" y1="45" x2="185" y2="45"/>
    <line x1="50" y1="60" x2="185" y2="60"/>
    <line x1="50" y1="75" x2="185" y2="75"/>
    <line x1="50" y1="90" x2="185" y2="90"/>
    <line x1="50" y1="105" x2="185" y2="105"/>
    <line x1="50" y1="120" x2="185" y2="120"/>
    <line x1="50" y1="135" x2="185" y2="135"/>
    <line x1="50" y1="150" x2="185" y2="150"/>
  </g>
  
  <!-- 3x3宫格粗线 -->
  <g stroke="#7b68ee" stroke-width="2" fill="none" opacity="1">
    <!-- 垂直粗线 -->
    <line x1="95" y1="30" x2="95" y2="165"/>
    <line x1="140" y1="30" x2="140" y2="165"/>
    
    <!-- 水平粗线 -->
    <line x1="50" y1="75" x2="185" y2="75"/>
    <line x1="50" y1="120" x2="185" y2="120"/>
  </g>
  
  <!-- 数独数字 -->
  <g filter="url(#pixelGlow)" font-family="Courier New" font-weight="bold" font-size="12">
    <!-- 预填数字（蓝色） -->
    <text x="57.5" y="42" text-anchor="middle" fill="#4a90e2">5</text>
    <text x="72.5" y="42" text-anchor="middle" fill="#4a90e2">3</text>
    <text x="102.5" y="42" text-anchor="middle" fill="#4a90e2">7</text>
    <text x="147.5" y="42" text-anchor="middle" fill="#4a90e2">9</text>
    <text x="162.5" y="42" text-anchor="middle" fill="#4a90e2">1</text>
    <text x="177.5" y="42" text-anchor="middle" fill="#4a90e2">8</text>
    
    <text x="57.5" y="57" text-anchor="middle" fill="#4a90e2">6</text>
    <text x="87.5" y="57" text-anchor="middle" fill="#4a90e2">1</text>
    <text x="102.5" y="57" text-anchor="middle" fill="#4a90e2">9</text>
    <text x="132.5" y="57" text-anchor="middle" fill="#4a90e2">5</text>
    <text x="177.5" y="57" text-anchor="middle" fill="#4a90e2">2</text>
    
    <text x="72.5" y="72" text-anchor="middle" fill="#4a90e2">8</text>
    <text x="117.5" y="72" text-anchor="middle" fill="#4a90e2">6</text>
    <text x="132.5" y="72" text-anchor="middle" fill="#4a90e2">2</text>
    <text x="162.5" y="72" text-anchor="middle" fill="#4a90e2">3</text>
    
    <!-- 玩家填入的数字（绿色） -->
    <text x="87.5" y="42" text-anchor="middle" fill="#4caf50">2</text>
    <text x="117.5" y="42" text-anchor="middle" fill="#4caf50">4</text>
    <text x="132.5" y="42" text-anchor="middle" fill="#4caf50">6</text>
    
    <text x="72.5" y="57" text-anchor="middle" fill="#4caf50">7</text>
    <text x="117.5" y="57" text-anchor="middle" fill="#4caf50">3</text>
    <text x="147.5" y="57" text-anchor="middle" fill="#4caf50">8</text>
    <text x="162.5" y="57" text-anchor="middle" fill="#4caf50">4</text>
    
    <text x="57.5" y="72" text-anchor="middle" fill="#4caf50">9</text>
    <text x="87.5" y="72" text-anchor="middle" fill="#4caf50">5</text>
    <text x="102.5" y="72" text-anchor="middle" fill="#4caf50">1</text>
    <text x="147.5" y="72" text-anchor="middle" fill="#4caf50">7</text>
    <text x="177.5" y="72" text-anchor="middle" fill="#4caf50">4</text>
    
    <!-- 下半部分数字 -->
    <text x="57.5" y="87" text-anchor="middle" fill="#4a90e2">8</text>
    <text x="87.5" y="87" text-anchor="middle" fill="#4caf50">6</text>
    <text x="102.5" y="87" text-anchor="middle" fill="#4a90e2">3</text>
    <text x="132.5" y="87" text-anchor="middle" fill="#4caf50">9</text>
    <text x="147.5" y="87" text-anchor="middle" fill="#4a90e2">5</text>
    <text x="177.5" y="87" text-anchor="middle" fill="#4caf50">7</text>
    
    <text x="72.5" y="102" text-anchor="middle" fill="#4a90e2">9</text>
    <text x="87.5" y="102" text-anchor="middle" fill="#4a90e2">4</text>
    <text x="117.5" y="102" text-anchor="middle" fill="#4caf50">8</text>
    <text x="147.5" y="102" text-anchor="middle" fill="#4a90e2">3</text>
    <text x="162.5" y="102" text-anchor="middle" fill="#4caf50">6</text>
    
    <text x="57.5" y="117" text-anchor="middle" fill="#4caf50">3</text>
    <text x="102.5" y="117" text-anchor="middle" fill="#4a90e2">5</text>
    <text x="117.5" y="117" text-anchor="middle" fill="#4a90e2">2</text>
    <text x="132.5" y="117" text-anchor="middle" fill="#4caf50">8</text>
    <text x="162.5" y="117" text-anchor="middle" fill="#4a90e2">9</text>
    <text x="177.5" y="117" text-anchor="middle" fill="#4caf50">1</text>
  </g>
  
  <!-- 高亮选中的单元格 -->
  <rect x="111" y="31" width="14" height="14" fill="rgba(123, 104, 238, 0.4)" stroke="#7b68ee" stroke-width="2"/>
  
  <!-- 侧边信息面板 -->
  <g transform="translate(200, 50)">
    <rect x="0" y="0" width="80" height="100" fill="rgba(15, 52, 96, 0.8)" stroke="#4a90e2" stroke-width="2"/>
    
    <!-- 难度指示 -->
    <text x="40" y="15" text-anchor="middle" fill="#b8c5d1" font-family="Courier New" font-size="8">DIFFICULTY</text>
    <text x="40" y="28" text-anchor="middle" fill="#ff9800" font-family="Courier New" font-size="12" font-weight="bold">MEDIUM</text>
    
    <!-- 时间显示 -->
    <text x="40" y="45" text-anchor="middle" fill="#b8c5d1" font-family="Courier New" font-size="8">TIME</text>
    <text x="40" y="58" text-anchor="middle" fill="#4caf50" font-family="Courier New" font-size="12" font-weight="bold">05:42</text>
    
    <!-- 剩余空格 -->
    <text x="40" y="75" text-anchor="middle" fill="#b8c5d1" font-family="Courier New" font-size="8">REMAINING</text>
    <text x="40" y="88" text-anchor="middle" fill="#e91e63" font-family="Courier New" font-size="12" font-weight="bold">12</text>
  </g>
  
  <!-- 数字键盘 -->
  <g transform="translate(210, 160)">
    <rect x="0" y="0" width="60" height="30" fill="rgba(15, 52, 96, 0.6)" stroke="#4a90e2" stroke-width="1"/>
    <g font-family="Courier New" font-size="8" font-weight="bold" fill="#f8f9fa">
      <text x="8" y="12" text-anchor="middle">1</text>
      <text x="18" y="12" text-anchor="middle">2</text>
      <text x="28" y="12" text-anchor="middle">3</text>
      <text x="38" y="12" text-anchor="middle">4</text>
      <text x="48" y="12" text-anchor="middle">5</text>
      <text x="8" y="22" text-anchor="middle">6</text>
      <text x="18" y="22" text-anchor="middle">7</text>
      <text x="28" y="22" text-anchor="middle">8</text>
      <text x="38" y="22" text-anchor="middle">9</text>
    </g>
    <rect x="16" y="15" width="8" height="8" fill="rgba(123, 104, 238, 0.5)" stroke="#7b68ee" stroke-width="1"/>
  </g>
  
  <!-- 像素装饰 -->
  <g opacity="0.7">
    <rect x="10" y="10" width="8" height="8" fill="#4caf50"/>
    <rect x="282" y="10" width="8" height="8" fill="#ff9800"/>
    <rect x="10" y="182" width="8" height="8" fill="#4a90e2"/>
    <rect x="282" y="182" width="8" height="8" fill="#e91e63"/>
  </g>
  
  <!-- 标题 -->
  <text x="150" y="20" text-anchor="middle" fill="#f8f9fa" font-family="Courier New" font-size="18" font-weight="bold">SUDOKU</text>
  
  <!-- 网格线效果 -->
  <g opacity="0.2">
    <rect x="0" y="25" width="300" height="1" fill="#4a90e2"/>
    <rect x="0" y="50" width="300" height="1" fill="#7b68ee"/>
    <rect x="0" y="75" width="300" height="1" fill="#4a90e2"/>
    <rect x="0" y="100" width="300" height="1" fill="#7b68ee"/>
    <rect x="0" y="125" width="300" height="1" fill="#4a90e2"/>
    <rect x="0" y="150" width="300" height="1" fill="#7b68ee"/>
    <rect x="0" y="175" width="300" height="1" fill="#4a90e2"/>
  </g>
  
  <!-- 进度指示器 -->
  <g transform="translate(20, 170)">
    <rect x="0" y="0" width="80" height="8" fill="rgba(15, 52, 96, 0.8)" stroke="#4a90e2" stroke-width="1"/>
    <rect x="2" y="2" width="50" height="4" fill="linear-gradient(90deg, #4a90e2, #7b68ee)"/>
    <text x="40" y="18" text-anchor="middle" fill="#b8c5d1" font-family="Courier New" font-size="8">PROGRESS: 65%</text>
  </g>
</svg> 